<svg xmlns="http://www.w3.org/2000/svg" viewBox="0 0 297.04 84.51"><defs><style>.cls-1{fill:#b7bbc4;}</style></defs><title>Ресурс 1</title><g id="Слой_2" data-name="Слой 2"><g id="Слой_1-2" data-name="Слой 1"><path class="cls-1" d="M102.2,37.28h-1.74V24.1h1.74Z"/><path class="cls-1" d="M115.51,37.28h-1.75l-6.64-10.16V37.28h-1.75V24.1h1.75l6.66,10.21V24.1h1.73Z"/><path class="cls-1" d="M127.45,25.53h-4.24V37.28h-1.73V25.53h-4.23V24.1h10.2Z"/><path class="cls-1" d="M136.86,31.19h-5.72v4.67h6.64v1.42h-8.38V24.1h8.29v1.43h-6.55v4.24h5.72Z"/><path class="cls-1" d="M144.78,31.95h-3.1v5.34h-1.75V24.1h4.37a5.17,5.17,0,0,1,3.43,1,3.65,3.65,0,0,1,1.2,3,3.55,3.55,0,0,1-.67,2.15,4,4,0,0,1-1.85,1.37l3.1,5.6v.11h-1.87Zm-3.1-1.42h2.67a3.57,3.57,0,0,0,1.24-.19,2.57,2.57,0,0,0,.88-.53A2.1,2.1,0,0,0,147,29a2.61,2.61,0,0,0,.18-1,3,3,0,0,0-.17-1,2,2,0,0,0-.52-.8,2.36,2.36,0,0,0-.9-.52,4.1,4.1,0,0,0-1.29-.18h-2.62Z"/><path class="cls-1" d="M161.5,37.28h-1.75l-6.64-10.16V37.28h-1.75V24.1h1.75l6.66,10.21V24.1h1.73Z"/><path class="cls-1" d="M172,33.84h-5.53l-1.24,3.44h-1.79l5-13.19H170l5,13.19H173.3Zm-5-1.43h4.48l-2.25-6.17Z"/><path class="cls-1" d="M184.8,25.53h-4.24V37.28h-1.73V25.53H174.6V24.1h10.2Z"/><path class="cls-1" d="M188.62,37.28h-1.74V24.1h1.74Z"/><path class="cls-1" d="M201.94,31.12a8.71,8.71,0,0,1-.38,2.66,5.89,5.89,0,0,1-1.06,2A4.55,4.55,0,0,1,198.84,37a5.31,5.31,0,0,1-2.18.43,5.22,5.22,0,0,1-2.15-.43,4.7,4.7,0,0,1-1.68-1.26,5.87,5.87,0,0,1-1.1-2,8.42,8.42,0,0,1-.39-2.66v-.83a8.48,8.48,0,0,1,.39-2.66,5.94,5.94,0,0,1,1.09-2,4.67,4.67,0,0,1,1.68-1.26,5.18,5.18,0,0,1,2.15-.44,5.3,5.3,0,0,1,2.19.44,4.62,4.62,0,0,1,1.68,1.26,5.82,5.82,0,0,1,1.07,2,8.76,8.76,0,0,1,.38,2.66Zm-1.73-.85a8.15,8.15,0,0,0-.24-2.08,4.36,4.36,0,0,0-.7-1.52,3,3,0,0,0-1.13-.93,3.47,3.47,0,0,0-1.51-.32,3.35,3.35,0,0,0-1.47.32,3.07,3.07,0,0,0-1.13.93,4.52,4.52,0,0,0-.72,1.52,7.74,7.74,0,0,0-.25,2.08v.85a7.66,7.66,0,0,0,.26,2.09,4.56,4.56,0,0,0,.73,1.53,3.08,3.08,0,0,0,1.13.94,3.34,3.34,0,0,0,1.47.32,3.45,3.45,0,0,0,1.51-.32,3,3,0,0,0,1.12-.94,4.42,4.42,0,0,0,.69-1.53,8.37,8.37,0,0,0,.24-2.09Z"/><path class="cls-1" d="M214.69,37.28h-1.75L206.3,27.12V37.28h-1.75V24.1h1.75L213,34.3V24.1h1.73Z"/><path class="cls-1" d="M225.22,33.84H219.7l-1.24,3.44h-1.79l5-13.19h1.52l5,13.19h-1.78Zm-5-1.43h4.48l-2.25-6.17Z"/><path class="cls-1" d="M231.79,35.86H238v1.42h-8V24.1h1.75Z"/><path class="cls-1" d="M107.79,53.45h-5.72v4.67h6.64v1.42h-8.38V46.36h8.29v1.43h-6.55V52h5.72Z"/><path class="cls-1" d="M120.57,55.36a6.09,6.09,0,0,1-.46,1.73,4.19,4.19,0,0,1-1,1.38,4.37,4.37,0,0,1-1.5.92,5.94,5.94,0,0,1-2.07.33,5,5,0,0,1-2.12-.43,4.6,4.6,0,0,1-1.63-1.24,5.72,5.72,0,0,1-1-1.92,8.06,8.06,0,0,1-.37-2.51V52.3a8,8,0,0,1,.37-2.51,5.61,5.61,0,0,1,1.06-1.93,4.7,4.7,0,0,1,1.67-1.24,5.34,5.34,0,0,1,2.21-.44,5.55,5.55,0,0,1,2,.33,4.22,4.22,0,0,1,1.46.91,4.33,4.33,0,0,1,1,1.39,6,6,0,0,1,.45,1.79h-1.75a5.94,5.94,0,0,0-.31-1.24,2.81,2.81,0,0,0-.58-.94,2.42,2.42,0,0,0-.91-.6,3.66,3.66,0,0,0-1.3-.21,3.35,3.35,0,0,0-1.54.34,3.13,3.13,0,0,0-1.11,1,4.32,4.32,0,0,0-.67,1.48,7.52,7.52,0,0,0-.23,1.91v1.34a7.79,7.79,0,0,0,.2,1.82,4.7,4.7,0,0,0,.62,1.49,3.06,3.06,0,0,0,1.06,1,3,3,0,0,0,1.52.37,4.29,4.29,0,0,0,1.4-.2,2.44,2.44,0,0,0,.95-.58,2.59,2.59,0,0,0,.58-.92,6.18,6.18,0,0,0,.32-1.24Z"/><path class="cls-1" d="M133.09,53.38a8.71,8.71,0,0,1-.38,2.66,5.89,5.89,0,0,1-1.06,2A4.55,4.55,0,0,1,130,59.29a5.31,5.31,0,0,1-2.18.43,5.22,5.22,0,0,1-2.15-.43A4.71,4.71,0,0,1,124,58a5.87,5.87,0,0,1-1.1-2,8.41,8.41,0,0,1-.39-2.66v-.83a8.47,8.47,0,0,1,.39-2.66,5.94,5.94,0,0,1,1.09-2,4.67,4.67,0,0,1,1.68-1.26,5.17,5.17,0,0,1,2.15-.44,5.3,5.3,0,0,1,2.19.44,4.62,4.62,0,0,1,1.68,1.26,5.82,5.82,0,0,1,1.07,2,8.76,8.76,0,0,1,.38,2.66Zm-1.73-.85a8.13,8.13,0,0,0-.24-2.08,4.37,4.37,0,0,0-.7-1.52,3,3,0,0,0-1.13-.93,3.47,3.47,0,0,0-1.51-.32,3.35,3.35,0,0,0-1.47.32,3.07,3.07,0,0,0-1.13.93,4.5,4.5,0,0,0-.72,1.52,7.74,7.74,0,0,0-.25,2.08v.85a7.64,7.64,0,0,0,.26,2.09A4.56,4.56,0,0,0,125.2,57a3.08,3.08,0,0,0,1.13.94,3.34,3.34,0,0,0,1.47.32,3.45,3.45,0,0,0,1.51-.32,3,3,0,0,0,1.12-.94,4.41,4.41,0,0,0,.69-1.53,8.35,8.35,0,0,0,.24-2.09Z"/><path class="cls-1" d="M145.84,59.54h-1.75l-6.64-10.16V59.54H135.7V46.36h1.75l6.66,10.21V46.36h1.73Z"/><path class="cls-1" d="M159.07,53.38a8.71,8.71,0,0,1-.38,2.66,5.87,5.87,0,0,1-1.06,2A4.55,4.55,0,0,1,156,59.29a5.31,5.31,0,0,1-2.18.43,5.22,5.22,0,0,1-2.15-.43A4.72,4.72,0,0,1,149.95,58a5.88,5.88,0,0,1-1.1-2,8.4,8.4,0,0,1-.39-2.66v-.83a8.45,8.45,0,0,1,.39-2.66,5.94,5.94,0,0,1,1.09-2,4.67,4.67,0,0,1,1.68-1.26,5.17,5.17,0,0,1,2.15-.44,5.3,5.3,0,0,1,2.19.44,4.62,4.62,0,0,1,1.68,1.26,5.82,5.82,0,0,1,1.07,2,8.76,8.76,0,0,1,.38,2.66Zm-1.73-.85a8.15,8.15,0,0,0-.24-2.08,4.38,4.38,0,0,0-.7-1.52,3,3,0,0,0-1.13-.93,3.47,3.47,0,0,0-1.51-.32,3.35,3.35,0,0,0-1.47.32,3.07,3.07,0,0,0-1.13.93,4.48,4.48,0,0,0-.72,1.52,7.74,7.74,0,0,0-.25,2.08v.85a7.62,7.62,0,0,0,.26,2.09,4.56,4.56,0,0,0,.73,1.53,3.07,3.07,0,0,0,1.13.94,3.34,3.34,0,0,0,1.47.32,3.45,3.45,0,0,0,1.51-.32,3,3,0,0,0,1.12-.94,4.4,4.4,0,0,0,.69-1.53,8.33,8.33,0,0,0,.24-2.09Z"/><path class="cls-1" d="M163.92,46.36l4.31,10.76,4.31-10.76h2.25V59.54h-1.74V54.41l.16-5.54L168.9,59.54h-1.33l-4.32-10.65.17,5.52v5.14h-1.74V46.36Z"/><path class="cls-1" d="M179.74,59.54H178V46.36h1.74Z"/><path class="cls-1" d="M192.61,55.36a6.09,6.09,0,0,1-.46,1.73,4.2,4.2,0,0,1-1,1.38,4.38,4.38,0,0,1-1.5.92,5.94,5.94,0,0,1-2.07.33,5,5,0,0,1-2.12-.43,4.6,4.6,0,0,1-1.63-1.24,5.72,5.72,0,0,1-1-1.92,8,8,0,0,1-.37-2.51V52.3a8,8,0,0,1,.37-2.51,5.62,5.62,0,0,1,1.06-1.93,4.7,4.7,0,0,1,1.67-1.24,5.34,5.34,0,0,1,2.2-.44,5.54,5.54,0,0,1,2,.33,4.22,4.22,0,0,1,1.46.91,4.33,4.33,0,0,1,1,1.39,6,6,0,0,1,.45,1.79h-1.75a5.91,5.91,0,0,0-.31-1.24,2.81,2.81,0,0,0-.58-.94,2.43,2.43,0,0,0-.91-.6,3.66,3.66,0,0,0-1.3-.21,3.35,3.35,0,0,0-1.54.34,3.14,3.14,0,0,0-1.11,1,4.32,4.32,0,0,0-.67,1.48,7.52,7.52,0,0,0-.23,1.91v1.34a7.77,7.77,0,0,0,.2,1.82,4.69,4.69,0,0,0,.62,1.49,3.07,3.07,0,0,0,1.06,1,3,3,0,0,0,1.52.37,4.29,4.29,0,0,0,1.4-.2,2.44,2.44,0,0,0,.95-.58,2.59,2.59,0,0,0,.58-.92,6.12,6.12,0,0,0,.32-1.24Z"/><path class="cls-1" d="M202,56.21a2.2,2.2,0,0,0-.14-.82,1.62,1.62,0,0,0-.5-.65,4,4,0,0,0-1-.55,13.83,13.83,0,0,0-1.54-.53A13.06,13.06,0,0,1,197.1,53a5.87,5.87,0,0,1-1.35-.82,3.33,3.33,0,0,1-.86-1.06,3,3,0,0,1-.3-1.37,3.19,3.19,0,0,1,.32-1.43,3.42,3.42,0,0,1,.91-1.14,4.34,4.34,0,0,1,1.41-.76,5.85,5.85,0,0,1,1.84-.27,5.5,5.5,0,0,1,2,.33,4.51,4.51,0,0,1,1.46.89,3.73,3.73,0,0,1,.9,1.28,3.79,3.79,0,0,1,.31,1.49H202a2.88,2.88,0,0,0-.18-1,2.15,2.15,0,0,0-.54-.82,2.49,2.49,0,0,0-.91-.54,3.91,3.91,0,0,0-1.29-.19,4,4,0,0,0-1.21.16,2.41,2.41,0,0,0-.85.45,1.79,1.79,0,0,0-.5.68,2.19,2.19,0,0,0-.16.85,1.65,1.65,0,0,0,.18.76,1.93,1.93,0,0,0,.55.63,4.14,4.14,0,0,0,1,.53,11.82,11.82,0,0,0,1.4.47,12.67,12.67,0,0,1,1.94.7,5.36,5.36,0,0,1,1.34.87,3.2,3.2,0,0,1,.79,1.1,3.49,3.49,0,0,1,.26,1.38,3.13,3.13,0,0,1-1.25,2.57,4.39,4.39,0,0,1-1.45.71,7,7,0,0,1-3.1.14,6,6,0,0,1-1.16-.34,5.11,5.11,0,0,1-1-.56,4,4,0,0,1-.83-.78,3.48,3.48,0,0,1-.55-1,3.55,3.55,0,0,1-.2-1.21h1.75a2.28,2.28,0,0,0,1,2,3.1,3.1,0,0,0,1,.47,4.92,4.92,0,0,0,1.23.15,3.42,3.42,0,0,0,2.11-.56A1.82,1.82,0,0,0,202,56.21Z"/><path class="cls-1" d="M220.73,53.38a8.71,8.71,0,0,1-.38,2.66,5.87,5.87,0,0,1-1.06,2,4.55,4.55,0,0,1-1.67,1.26,5.31,5.31,0,0,1-2.18.43,5.22,5.22,0,0,1-2.15-.43A4.72,4.72,0,0,1,211.61,58a5.88,5.88,0,0,1-1.1-2,8.4,8.4,0,0,1-.39-2.66v-.83a8.45,8.45,0,0,1,.39-2.66,5.94,5.94,0,0,1,1.09-2,4.67,4.67,0,0,1,1.68-1.26,5.17,5.17,0,0,1,2.15-.44,5.3,5.3,0,0,1,2.19.44,4.62,4.62,0,0,1,1.68,1.26,5.82,5.82,0,0,1,1.07,2,8.76,8.76,0,0,1,.38,2.66ZM219,52.52a8.15,8.15,0,0,0-.24-2.08,4.38,4.38,0,0,0-.7-1.52,3,3,0,0,0-1.13-.93,3.47,3.47,0,0,0-1.51-.32A3.35,3.35,0,0,0,214,48a3.07,3.07,0,0,0-1.13.93,4.48,4.48,0,0,0-.72,1.52,7.74,7.74,0,0,0-.25,2.08v.85a7.62,7.62,0,0,0,.26,2.09,4.56,4.56,0,0,0,.73,1.53,3.07,3.07,0,0,0,1.13.94,3.34,3.34,0,0,0,1.47.32,3.45,3.45,0,0,0,1.51-.32,3,3,0,0,0,1.12-.94,4.4,4.4,0,0,0,.69-1.53,8.33,8.33,0,0,0,.24-2.09Z"/><path class="cls-1" d="M225.09,58.12h6.25v1.42h-8V46.36h1.75Z"/><path class="cls-1" d="M235.18,53l3.44-6.62h2L236,54.62v4.92h-1.74V54.62l-4.55-8.27h2Z"/><path class="cls-1" d="M244.54,46.36l4.31,10.76,4.31-10.76h2.26V59.54h-1.74V54.41l.16-5.54-4.33,10.68h-1.33l-4.32-10.65.17,5.52v5.14h-1.74V46.36Z"/><path class="cls-1" d="M260.23,54.38v5.16h-1.74V46.36h4.86a6,6,0,0,1,2,.3,4.06,4.06,0,0,1,1.44.84,3.57,3.57,0,0,1,.89,1.28,4.22,4.22,0,0,1,.3,1.62,4.48,4.48,0,0,1-.3,1.7,3.26,3.26,0,0,1-.89,1.25,4,4,0,0,1-1.44.77,6.69,6.69,0,0,1-2,.27Zm0-1.42h3.12a4,4,0,0,0,1.31-.19,2.39,2.39,0,0,0,.9-.53,2.06,2.06,0,0,0,.51-.81,3.09,3.09,0,0,0,.16-1,3,3,0,0,0-.16-1,2.25,2.25,0,0,0-.51-.84,2.52,2.52,0,0,0-.9-.58,3.55,3.55,0,0,0-1.31-.22h-3.12Z"/><path class="cls-1" d="M272.06,59.54h-1.74V46.36h1.74Z"/><path class="cls-1" d="M282.68,56.1h-5.53l-1.24,3.44h-1.79l5-13.19h1.52l5,13.19h-1.78Zm-5-1.43h4.48l-2.25-6.17Z"/><path class="cls-1" d="M287.5,59.54V46.36h3.72a6.24,6.24,0,0,1,2.37.43A5.18,5.18,0,0,1,295.43,48a5.59,5.59,0,0,1,1.19,2,7.46,7.46,0,0,1,.42,2.58v.78a7.46,7.46,0,0,1-.42,2.58,5.47,5.47,0,0,1-1.2,2,5.19,5.19,0,0,1-1.88,1.23,6.77,6.77,0,0,1-2.47.43Zm1.74-11.76V58.12h1.83a4.68,4.68,0,0,0,1.85-.34,3.55,3.55,0,0,0,1.33-1,4.13,4.13,0,0,0,.8-1.5,6.74,6.74,0,0,0,.27-2v-.81a6.86,6.86,0,0,0-.27-2,4.11,4.11,0,0,0-.8-1.49A3.39,3.39,0,0,0,293,48.1a4.49,4.49,0,0,0-1.74-.32Z"/><path class="cls-1" d="M84.45,39.24A42.34,42.34,0,0,0,83,30.62H49.12v8.62H73.6a32.11,32.11,0,0,1,0,6H49.12v8.62h22.4C62.64,76,33.5,80.65,18.24,62.47H5.17A42.27,42.27,0,0,0,84.45,39.24Z"/><path class="cls-1" d="M35.48,53.83V45.21H11a32.34,32.34,0,0,1,0-6H35.48V30.62H13.07C21.71,8.7,50.92,3.72,66.36,22H79.43C58-17.19-3.07-.68.12,45.21a40.94,40.94,0,0,0,1.52,8.62Z"/></g></g></svg>